<svg width="46" height="45" fill="none" xmlns="http://www.w3.org/2000/svg"><path fill-rule="evenodd" clip-rule="evenodd" d="M45.83 16.931a3.53 3.53 0 01-.868 3.59l-8.235 8.193a.71.71 0 00-.197.62l1.944 11.57a3.514 3.514 0 01-1.364 3.423 3.37 3.37 0 01-2.013.673 3.375 3.375 0 01-1.6-.406L23.32 39.132a.673.673 0 00-.638 0l-10.178 5.462a3.351 3.351 0 01-3.612-.267 3.514 3.514 0 01-1.365-3.424l1.944-11.57a.71.71 0 00-.197-.619L1.038 20.52a3.53 3.53 0 01-.868-3.588c.407-1.277 1.468-2.19 2.77-2.383l11.379-1.688a.688.688 0 00.516-.383l5.09-10.526C20.505.748 21.684 0 23 0c1.315 0 2.494.748 3.076 1.952l5.089 10.526c.1.207.293.35.516.383l11.38 1.688c1.301.193 2.362 1.106 2.769 2.383zM35.77 41.377l-1.944-11.57a3.545 3.545 0 01.986-3.098l8.235-8.194a.693.693 0 00.173-.718.674.674 0 00-.553-.476l-11.38-1.688a3.435 3.435 0 01-2.582-1.915L23.614 3.19a.666.666 0 00-.615-.39.666.666 0 00-.615.39l-5.089 10.526a3.435 3.435 0 01-2.582 1.916L3.333 17.32a.673.673 0 00-.554.476.693.693 0 00.174.718l8.234 8.194a3.546 3.546 0 01.987 3.098l-1.944 11.57a.688.688 0 00.273.684.658.658 0 00.722.054l10.178-5.462a3.375 3.375 0 013.192 0l10.179 5.462c.34.183.618.023.722-.053a.688.688 0 00.273-.685z" fill="#86ADEF"/></svg>