<svg width="46" height="45" viewBox="0 0 46 45" fill="none" xmlns="http://www.w3.org/2000/svg">
<path fill-rule="evenodd" clip-rule="evenodd" d="M45.8296 16.9315C46.2359 18.2082 45.9035 19.5835 44.9617 20.5205L36.7272 28.7139C36.5656 28.8748 36.4919 29.1066 36.53 29.3338L38.4739 40.9031C38.6962 42.2261 38.1734 43.5382 37.1095 44.3274C36.5084 44.7735 35.8049 45 35.0969 45C34.5517 45.0001 34.0039 44.8658 33.4977 44.5942L23.3194 39.1319C23.1194 39.0245 22.8808 39.0245 22.6808 39.1319L12.5027 44.5942C11.3388 45.2187 9.95447 45.1168 8.89054 44.3275C7.82662 43.5384 7.3039 42.2264 7.52615 40.9032L9.47005 29.3339C9.50824 29.1067 9.43439 28.8749 9.27278 28.714L1.03838 20.5205C0.0965499 19.5835 -0.236016 18.2082 0.170499 16.9315C0.577013 15.6547 1.63779 14.7417 2.9392 14.5488L14.3188 12.8609C14.5422 12.8277 14.7352 12.6845 14.8353 12.4779L19.9244 1.95166C20.5064 0.747814 21.6849 0 23 0C24.3151 0 25.4936 0.747814 26.0756 1.95166L31.1647 12.4778C31.2647 12.6845 31.4578 12.8277 31.6811 12.8608L43.0609 14.5488C44.3623 14.7417 45.4232 15.6547 45.8296 16.9315ZM35.7697 41.377L33.8259 29.8074C33.635 28.6715 34.0036 27.5131 34.8122 26.7086L43.0466 18.5151C43.3223 18.241 43.2598 17.9218 43.2202 17.7973C43.1806 17.6728 43.0473 17.3771 42.6665 17.3207L31.2868 15.6328C30.1696 15.4671 29.2042 14.7512 28.7045 13.7175L23.6154 3.19127V3.19117C23.4449 2.83883 23.1284 2.80088 23.0003 2.80088C22.872 2.80088 22.5555 2.83893 22.3852 3.19117L17.296 13.7174C16.7962 14.7511 15.8307 15.467 14.7135 15.6326L3.33404 17.3206C2.95322 17.377 2.81985 17.6726 2.78034 17.7972C2.74062 17.9216 2.67825 18.2407 2.95383 18.515L11.1882 26.7085C11.9969 27.5131 12.3655 28.6715 12.1747 29.8074L10.2308 41.3768C10.1657 41.7639 10.3999 41.9847 10.5036 42.0615C10.6073 42.1384 10.8853 42.2975 11.226 42.1147L21.4042 36.6525C21.9038 36.3846 22.452 36.2504 23.0002 36.2504C23.5484 36.2504 24.0965 36.3846 24.5962 36.6526L34.7745 42.1149C35.115 42.2978 35.3931 42.1385 35.4969 42.0617C35.6006 41.9849 35.8348 41.7641 35.7697 41.377Z" fill="#86ADEF"/>
</svg>
