<svg width="17" height="12" fill="none" xmlns="http://www.w3.org/2000/svg"><path fill-rule="evenodd" clip-rule="evenodd" d="M8.5 1.545a7.55 7.55 0 016.815 4.25 7.55 7.55 0 01-6.815 4.25 7.55 7.55 0 01-6.816-4.25A7.55 7.55 0 018.5 1.545zM8.5 0C4.636 0 1.337 2.403 0 5.795c1.337 3.393 4.636 5.796 8.5 5.796s7.163-2.403 8.5-5.796C15.663 2.403 12.364 0 8.5 0zm0 3.864a1.933 1.933 0 11-.002 3.865A1.933 1.933 0 018.5 3.864zm0-1.546a3.483 3.483 0 00-3.477 3.477A3.483 3.483 0 008.5 9.273a3.482 3.482 0 003.477-3.478A3.482 3.482 0 008.5 2.318z" fill="#5A5A5A"/></svg>